<svg width="224" height="44" viewBox="0 0 224 44" fill="none" xmlns="http://www.w3.org/2000/svg">
<path d="M13.4694 11.5918C13.4694 11.4169 13.4694 11.2419 13.2945 11.2419C13.1195 11.2419 13.1195 11.2419 12.9446 11.2419L11.1954 11.7668C11.0204 11.7668 11.0204 11.9417 11.0204 12.1167C11.0204 12.2915 11.1954 12.2915 11.1954 12.2915H12.9446C13.1195 12.2915 13.1195 12.2915 13.1195 12.2915V12.1167V11.5918H13.4694ZM34.6355 28.7347C35.1604 28.2099 35.3353 27.86 35.3353 27.1603C34.6356 27.5102 33.9359 27.6852 32.8863 28.035C32.3615 28.2099 32.0116 28.035 31.312 28.2099C30.6123 28.3848 30.0875 28.7347 29.3878 28.7347C29.0379 28.7347 28.688 28.3848 28.688 28.035C28.863 27.1603 29.9125 26.6355 30.7871 25.7609C31.4869 25.0612 31.8368 24.3615 32.0116 23.6618C32.0116 23.6618 31.312 23.4869 30.6122 23.4869C31.6617 22.7872 31.6618 21.7377 31.8368 21.0379C31.8368 20.688 32.0116 20.5132 32.0116 20.5132C32.0116 20.5132 31.312 20.3382 30.7871 20.5132C31.312 19.6384 31.137 18.9388 31.312 18.5889C31.312 18.239 31.4869 18.0642 31.4869 17.7143C31.137 17.7143 31.137 17.7143 30.6122 17.7143C30.2624 17.7143 29.3878 17.7143 28.5131 18.239C28.5131 18.239 28.5131 17.8892 28.5131 17.5393C28.5131 17.5393 27.1137 17.5393 25.8892 18.414C25.8892 18.414 25.7142 18.0642 25.8892 17.7143C25.8892 17.7143 23.7901 17.5393 22.3906 19.9883C20.4665 20.1633 19.9416 20.5132 19.242 21.3878C17.6676 22.962 16.6181 28.035 13.9941 28.035C13.2945 28.035 12.7696 27.3353 12.7696 26.6355C12.7696 25.7609 14.1691 23.4869 14.6939 22.962C16.9679 20.1633 19.4169 16.4898 19.4169 13.516C19.4169 11.2419 17.6676 9.14278 15.3936 9.14278C14.8688 9.14278 13.9941 9.31778 13.9941 10.0175C13.9941 10.7172 14.344 10.7172 14.6939 10.7172C15.0437 10.7172 15.2186 10.7172 15.7434 10.5423C15.9184 10.5423 16.4431 10.5423 16.4431 10.8922C16.4431 11.2419 15.9184 11.2419 15.7434 11.4169C15.3936 11.4169 15.0437 11.4169 14.6939 11.4169C14.344 11.4169 14.1691 11.5918 14.1691 11.9417C14.1691 12.4664 14.8688 12.6414 15.3936 12.6414C16.4431 12.6414 17.4927 12.9913 17.3177 14.5655C17.1429 16.1399 16.2682 17.8892 15.3936 19.2887C13.1195 22.962 8.74638 25.2362 8.74638 29.2594C8.74638 30.4839 9.27112 31.8834 10.1457 32.583H31.312C31.8368 32.2333 32.0116 32.0583 32.3615 31.5335C32.8863 31.0088 32.8862 30.4839 33.4111 29.9592C33.9359 29.4344 34.2858 29.2594 34.6355 28.7347ZM39.5335 21.9125C39.5335 31.8834 31.4869 40.1049 21.3411 40.1049C11.3702 40.1049 3.14862 31.8834 3.14862 21.9125C3.14862 11.9417 11.3702 3.89503 21.3411 3.89503C31.312 3.89503 39.5335 11.9417 39.5335 21.9125ZM42.6823 21.9125C42.6823 10.0175 33.0612 0.571409 21.3411 0.571409C9.446 0.571409 0 10.1924 0 21.9125C0 33.8075 9.621 43.2537 21.3411 43.2537C33.2361 43.4285 42.6823 33.8075 42.6823 21.9125ZM71.7201 15.2653L73.2945 12.4664C70.4956 10.1924 67.8717 9.31778 64.5481 9.31778C58.2508 9.31778 53.1779 14.2158 53.8775 18.9388C54.2274 23.137 58.0758 25.9359 62.274 28.2099C63.4985 28.7347 64.0234 30.309 63.3236 31.3585C62.7989 32.0583 61.9242 32.4082 61.2245 32.4082C60 32.4082 57.551 31.0088 56.5015 29.2594L54.5773 31.8834C55.8018 33.2828 58.7755 36.0817 63.4985 36.4314C68.5714 36.7813 74.6939 33.4577 74.6939 27.3353C74.519 24.8863 73.6443 22.4373 71.5451 20.8629C70.1458 19.8134 66.1225 17.5393 65.0729 16.6647C63.8484 15.6152 64.1982 14.5655 64.5481 14.0408C65.4228 12.9913 65.9475 12.9913 66.9971 12.9913C68.0466 12.9913 70.1458 13.6909 71.7201 15.2653ZM92.0116 15.6152H99.5335L97.7842 10.3673H75.2186L73.9941 15.6152H80.6414L82.3906 36.0817H90.2624L92.0116 15.6152ZM111.429 27.6852H102.157L106.356 16.3149L111.429 27.6852ZM115.102 35.9067H122.973L115.977 10.1924H103.207L93.7609 35.9067H99.1836L100.408 32.4082H113.528L115.102 35.9067ZM141.866 17.5393C141.866 19.6384 140.116 21.2128 138.192 21.2128H136.093L136.794 13.6909H138.367C140.291 13.6909 141.866 15.4402 141.866 17.5393ZM135.743 24.8863H136.969C139.067 24.8863 141.166 26.6355 141.166 28.7347C141.166 30.8338 139.417 32.583 137.492 32.583H135.218L135.743 24.8863ZM151.662 15.965C151.487 11.5918 147.813 10.1924 144.14 10.1924H124.898L127.172 35.9067H143.44C147.289 35.9067 151.137 32.758 151.137 29.4344C151.137 25.9358 148.514 23.6618 144.84 22.6123C147.814 22.2624 151.662 19.4635 151.662 15.965ZM164.781 35.9067L167.056 10.1924H154.636L156.91 35.9067H164.781ZM181.575 30.6589L183.324 10.1924H170.904L173.177 35.9067H187.347L187.697 30.6589H181.575ZM206.763 19.6384L200.641 30.1342C199.767 31.7084 197.667 32.0583 196.268 31.1837C194.693 30.309 194.169 28.2099 195.219 26.4607L201.166 16.1399C202.041 14.5655 203.965 14.0408 205.54 14.9154C207.114 15.965 207.638 18.0642 206.763 19.6384ZM213.936 23.137C213.936 15.79 207.989 9.84253 200.816 9.84253C193.47 9.84253 187.697 15.79 187.697 23.137C187.697 30.4839 193.645 36.4314 200.816 36.4314C207.989 36.4314 213.936 30.4839 213.936 23.137ZM217.435 5.64428H216.385V3.7201H217.435C218.133 3.7201 218.833 3.89503 218.833 4.59478C218.833 5.46941 218.133 5.64428 217.435 5.64428ZM220.059 9.31778L218.309 6.51891C219.359 6.34403 220.059 5.81928 220.059 4.76966C220.059 3.37025 219.183 2.84547 217.61 2.84547H215.16V9.31778H216.385V6.51891H217.085L218.833 9.31778H220.059ZM221.807 6.16903C221.807 8.96791 219.883 10.8922 217.435 10.8922C214.986 10.8922 213.061 8.96791 213.061 6.16903C213.061 3.54517 214.986 1.44605 217.435 1.44605C219.883 1.44605 221.807 3.37025 221.807 6.16903ZM223.207 6.16903C223.207 3.0204 220.583 0.396484 217.435 0.396484C214.286 0.396484 211.662 3.0204 211.662 6.16903C211.662 9.31778 214.286 11.9417 217.435 11.9417C220.583 11.9417 223.207 9.31778 223.207 6.16903Z" fill="white"/>
</svg>
