<svg width="35" height="46" viewBox="0 0 35 46" fill="none" xmlns="http://www.w3.org/2000/svg">
<path d="M27.7695 7.92578C27.9414 8.3125 27.8125 8.69922 27.5117 9L25.6641 10.6758C25.707 11.0195 25.75 11.4062 25.75 11.75C25.75 12.1367 25.707 12.5234 25.6641 12.8672L27.5117 14.543C27.8125 14.8438 27.9414 15.2305 27.7695 15.6172C27.5977 16.1328 27.3828 16.6055 27.125 17.0781L26.9102 17.4219C26.6094 17.8945 26.3086 18.3672 25.9648 18.7969C25.707 19.0977 25.2773 19.1836 24.8906 19.0547L22.5273 18.3242C21.9258 18.7539 21.2812 19.0977 20.6367 19.3984L20.0781 21.8477C19.9922 22.2344 19.6914 22.5352 19.3047 22.6211C18.7031 22.707 18.1016 22.75 17.457 22.75C16.8555 22.75 16.2539 22.707 15.6523 22.6211C15.2656 22.5352 14.9648 22.2344 14.8789 21.8477L14.3203 19.3984C13.6758 19.0977 13.0312 18.7539 12.4297 18.3242L10.0664 19.0547C9.67969 19.1836 9.25 19.0977 8.99219 18.7969C8.64844 18.3672 8.34766 17.8945 8.04688 17.4219L7.83203 17.0781C7.57422 16.6055 7.35938 16.1328 7.1875 15.6172C7.01562 15.2305 7.14453 14.8438 7.44531 14.543L9.29297 12.8672C9.25 12.5234 9.25 12.1367 9.25 11.75C9.25 11.4062 9.25 11.0195 9.29297 10.6758L7.44531 9C7.14453 8.69922 7.01562 8.3125 7.1875 7.92578C7.35938 7.41016 7.57422 6.9375 7.83203 6.46484L8.04688 6.12109C8.34766 5.64844 8.64844 5.17578 8.99219 4.74609C9.25 4.44531 9.67969 4.35938 10.0664 4.48828L12.4297 5.21875C13.0312 4.78906 13.6758 4.40234 14.3203 4.14453L14.8789 1.69531C14.9648 1.30859 15.2656 1.00781 15.6523 0.921875C16.2539 0.835938 16.8555 0.75 17.5 0.75C18.1016 0.75 18.7031 0.835938 19.3047 0.921875C19.6914 1.00781 19.9922 1.30859 20.0781 1.69531L20.6367 4.14453C21.2812 4.40234 21.9258 4.78906 22.5273 5.21875L24.8906 4.48828C25.2773 4.35938 25.707 4.44531 25.9648 4.74609C26.3086 5.17578 26.6094 5.64844 26.9102 6.12109L27.125 6.46484C27.3828 6.9375 27.5977 7.41016 27.7695 7.92578ZM17.5 15.1875C19.3906 15.1875 20.9375 13.6836 20.9375 11.75C20.9375 9.85938 19.3906 8.3125 17.5 8.3125C15.5664 8.3125 14.0625 9.85938 14.0625 11.75C14.0625 13.6836 15.5664 15.1875 17.5 15.1875Z" fill="url(#paint0_linear_156_62)"/>
<path d="M3.84 41.144C3.432 41.144 3.056 41.064 2.712 40.904C2.368 40.736 2.072 40.504 1.824 40.208C1.576 39.912 1.392 39.568 1.272 39.176V36.824C1.392 36.424 1.576 36.08 1.824 35.792C2.072 35.496 2.368 35.268 2.712 35.108C3.056 34.94 3.432 34.856 3.84 34.856C4.376 34.856 4.856 34.992 5.28 35.264C5.704 35.536 6.04 35.908 6.288 36.38C6.544 36.852 6.672 37.392 6.672 38C6.672 38.608 6.544 39.148 6.288 39.62C6.04 40.092 5.704 40.464 5.28 40.736C4.856 41.008 4.376 41.144 3.84 41.144ZM0.84 43.4V35H1.716V37.244L1.572 38L1.74 38.756V43.4H0.84ZM3.804 40.268C4.188 40.268 4.528 40.172 4.824 39.98C5.12 39.788 5.352 39.524 5.52 39.188C5.688 38.844 5.772 38.448 5.772 38C5.772 37.552 5.688 37.16 5.52 36.824C5.352 36.48 5.12 36.212 4.824 36.02C4.528 35.828 4.188 35.732 3.804 35.732C3.412 35.732 3.06 35.828 2.748 36.02C2.436 36.212 2.188 36.48 2.004 36.824C1.828 37.16 1.74 37.552 1.74 38C1.74 38.448 1.828 38.844 2.004 39.188C2.188 39.524 2.436 39.788 2.748 39.98C3.06 40.172 3.412 40.268 3.804 40.268ZM7.98844 41V35H8.86444V36.74L8.60044 36.512C8.73644 36.048 8.99644 35.68 9.38044 35.408C9.77244 35.136 10.2124 35 10.7004 35H11.3244V35.876H10.5564C10.2284 35.876 9.93644 35.956 9.68044 36.116C9.43244 36.276 9.23644 36.496 9.09244 36.776C8.95644 37.056 8.88844 37.384 8.88844 37.76V41H7.98844ZM14.6468 41.144C14.0708 41.144 13.5588 41.012 13.1108 40.748C12.6708 40.484 12.3228 40.116 12.0668 39.644C11.8188 39.172 11.6948 38.624 11.6948 38C11.6948 37.376 11.8188 36.828 12.0668 36.356C12.3228 35.884 12.6708 35.516 13.1108 35.252C13.5588 34.988 14.0708 34.856 14.6468 34.856C15.2308 34.856 15.7428 34.988 16.1828 35.252C16.6228 35.516 16.9668 35.884 17.2148 36.356C17.4708 36.828 17.5988 37.376 17.5988 38C17.5988 38.624 17.4708 39.172 17.2148 39.644C16.9668 40.116 16.6228 40.484 16.1828 40.748C15.7428 41.012 15.2308 41.144 14.6468 41.144ZM14.6468 40.268C15.0468 40.268 15.3988 40.176 15.7028 39.992C16.0148 39.8 16.2588 39.536 16.4348 39.2C16.6108 38.856 16.6988 38.456 16.6988 38C16.6988 37.536 16.6108 37.136 16.4348 36.8C16.2588 36.464 16.0148 36.204 15.7028 36.02C15.3988 35.828 15.0468 35.732 14.6468 35.732C14.2468 35.732 13.8908 35.828 13.5788 36.02C13.2748 36.204 13.0348 36.464 12.8588 36.8C12.6828 37.136 12.5948 37.536 12.5948 38C12.5948 38.456 12.6828 38.856 12.8588 39.2C13.0348 39.536 13.2748 39.8 13.5788 39.992C13.8908 40.176 14.2468 40.268 14.6468 40.268ZM19.414 41V34.136C19.414 33.592 19.574 33.16 19.894 32.84C20.214 32.52 20.622 32.36 21.118 32.36H21.778V33.104L21.718 33.236H21.274C20.93 33.236 20.682 33.308 20.53 33.452C20.386 33.596 20.314 33.844 20.314 34.196V41H19.414ZM18.382 35.876V35H21.778V35.876H18.382ZM22.8595 41V35H23.7595V41H22.8595ZM23.3155 33.824C23.1315 33.824 22.9755 33.76 22.8475 33.632C22.7195 33.504 22.6555 33.348 22.6555 33.164C22.6555 32.98 22.7195 32.824 22.8475 32.696C22.9755 32.568 23.1315 32.504 23.3155 32.504C23.4995 32.504 23.6555 32.568 23.7835 32.696C23.9115 32.824 23.9755 32.98 23.9755 33.164C23.9755 33.348 23.9115 33.504 23.7835 33.632C23.6555 33.76 23.4995 33.824 23.3155 33.824ZM25.6148 41V32.36L26.4788 32.252L26.5148 32.348V41H25.6148ZM30.8062 41.144C30.2382 41.144 29.7342 41.012 29.2942 40.748C28.8542 40.484 28.5102 40.116 28.2622 39.644C28.0142 39.172 27.8902 38.624 27.8902 38C27.8902 37.376 28.0102 36.828 28.2502 36.356C28.4982 35.884 28.8382 35.516 29.2702 35.252C29.7102 34.988 30.2142 34.856 30.7822 34.856C31.3422 34.856 31.8302 34.992 32.2462 35.264C32.6702 35.528 33.0022 35.904 33.2422 36.392C33.4822 36.872 33.6022 37.432 33.6022 38.072V38.18L33.4222 38.348H28.4182V37.472H33.0742L32.6782 37.64C32.6462 37.24 32.5422 36.9 32.3662 36.62C32.1902 36.332 31.9662 36.112 31.6942 35.96C31.4222 35.808 31.1182 35.732 30.7822 35.732C30.4142 35.732 30.0782 35.824 29.7742 36.008C29.4702 36.184 29.2302 36.436 29.0542 36.764C28.8782 37.092 28.7902 37.472 28.7902 37.904V38.06C28.7902 38.492 28.8742 38.876 29.0422 39.212C29.2182 39.54 29.4582 39.8 29.7622 39.992C30.0662 40.176 30.4142 40.268 30.8062 40.268C31.1982 40.268 31.5342 40.176 31.8142 39.992C32.0942 39.808 32.3142 39.556 32.4742 39.236H32.6062L33.3622 39.572C33.1382 40.052 32.8022 40.436 32.3542 40.724C31.9142 41.004 31.3982 41.144 30.8062 41.144Z" fill="#539BC2"/>
<defs>
<linearGradient id="paint0_linear_156_62" x1="17.5" y1="1" x2="17.5" y2="23" gradientUnits="userSpaceOnUse">
<stop stop-color="#539BC2"/>
<stop offset="1" stop-color="#244A77"/>
</linearGradient>
</defs>
</svg>
