<svg width="39" height="46" viewBox="0 0 39 46" fill="none" xmlns="http://www.w3.org/2000/svg">
<path d="M24.1875 4.875L24.1445 4.91797C23.9297 4.91797 23.7148 4.875 23.5 4.875H18C17.2695 4.875 16.582 5.00391 15.9375 5.13281C15.9375 5.04688 15.9375 5.00391 15.9375 4.875C15.9375 2.59766 17.7422 0.75 20.0625 0.75C22.3398 0.75 24.1875 2.59766 24.1875 4.875ZM23.5 6.25C23.6289 6.25 23.7578 6.29297 23.9297 6.29297C24.1016 6.29297 24.2734 6.29297 24.4883 6.33594C25.2188 5.47656 26.3359 4.875 27.625 4.875H29L28.1836 8.14062C28.8711 8.74219 29.3867 9.51562 29.7734 10.375H30.375C31.1055 10.375 31.75 11.0195 31.75 11.75V15.875C31.75 16.6484 31.1055 17.25 30.375 17.25H29C28.5703 17.8086 28.1406 18.2383 27.625 18.625V21.375C27.625 22.1484 26.9805 22.75 26.25 22.75H24.875C24.1016 22.75 23.5 22.1484 23.5 21.375V20H18V21.375C18 22.1484 17.3555 22.75 16.625 22.75H15.25C14.4766 22.75 13.875 22.1484 13.875 21.375V18.625C12.3711 17.5078 11.3398 15.7891 11.125 13.8125H9.92188C8.28906 13.8125 7 12.5234 7 10.8906C7 9.30078 8.28906 7.96875 9.92188 7.96875H10.0938C10.6523 7.96875 11.125 8.44141 11.125 9C11.125 9.60156 10.6523 10.0312 10.0938 10.0312H9.92188C9.40625 10.0312 9.0625 10.418 9.0625 10.8906C9.0625 11.3633 9.40625 11.75 9.92188 11.75H11.2539C11.7695 9.21484 13.7031 7.15234 16.2383 6.50781C16.7969 6.33594 17.3555 6.25 18 6.25H23.5ZM25.2188 11.0625C24.6172 11.0625 24.1875 11.5352 24.1875 12.0938C24.1875 12.6953 24.6172 13.125 25.2188 13.125C25.7773 13.125 26.25 12.6953 26.25 12.0938C26.25 11.5352 25.7773 11.0625 25.2188 11.0625Z" fill="url(#paint0_linear_156_61)"/>
<path d="M2.76 41.144C2.144 41.144 1.624 40.996 1.2 40.7C0.776 40.396 0.496 39.972 0.36 39.428L1.188 39.224L1.32 39.248C1.408 39.568 1.592 39.82 1.872 40.004C2.152 40.18 2.48 40.268 2.856 40.268C3.232 40.268 3.552 40.184 3.816 40.016C4.088 39.84 4.224 39.612 4.224 39.332C4.224 39.1 4.144 38.916 3.984 38.78C3.832 38.636 3.6 38.528 3.288 38.456L2.184 38.204C1.624 38.076 1.212 37.872 0.948 37.592C0.692 37.304 0.564 36.964 0.564 36.572C0.564 36.236 0.656 35.94 0.84 35.684C1.024 35.428 1.276 35.228 1.596 35.084C1.924 34.932 2.296 34.856 2.712 34.856C3.32 34.856 3.832 35.008 4.248 35.312C4.664 35.616 4.94 36.044 5.076 36.596L4.236 36.776L4.104 36.752C4.024 36.424 3.848 36.172 3.576 35.996C3.312 35.82 3.016 35.732 2.688 35.732C2.344 35.732 2.056 35.808 1.824 35.96C1.6 36.112 1.488 36.304 1.488 36.536C1.488 36.736 1.56 36.904 1.704 37.04C1.856 37.168 2.096 37.268 2.424 37.34L3.54 37.592C4.092 37.72 4.496 37.924 4.752 38.204C5.016 38.484 5.148 38.84 5.148 39.272C5.148 39.656 5.044 39.988 4.836 40.268C4.628 40.548 4.344 40.764 3.984 40.916C3.632 41.068 3.224 41.144 2.76 41.144ZM8.29069 41.144C7.88269 41.144 7.51469 41.064 7.18669 40.904C6.86669 40.744 6.61469 40.524 6.43069 40.244C6.24669 39.964 6.15469 39.64 6.15469 39.272C6.15469 38.752 6.33869 38.332 6.70669 38.012C7.08269 37.684 7.59869 37.496 8.25469 37.448L10.5587 37.28V38.12L8.45869 38.276C7.99469 38.308 7.64669 38.408 7.41469 38.576C7.19069 38.744 7.07869 38.976 7.07869 39.272C7.07869 39.56 7.19469 39.8 7.42669 39.992C7.66669 40.176 7.97469 40.268 8.35069 40.268C8.72669 40.268 9.06669 40.184 9.37069 40.016C9.68269 39.84 9.92669 39.608 10.1027 39.32C10.2867 39.024 10.3787 38.696 10.3787 38.336V37.364C10.3787 36.884 10.2307 36.492 9.93469 36.188C9.64669 35.876 9.25469 35.72 8.75869 35.72C8.38269 35.72 8.05869 35.812 7.78669 35.996C7.51469 36.172 7.32269 36.432 7.21069 36.776H7.07869L6.28669 36.488C6.47869 35.952 6.79069 35.544 7.22269 35.264C7.65469 34.984 8.17069 34.844 8.77069 34.844C9.57869 34.844 10.1987 35.088 10.6307 35.576C11.0627 36.056 11.2787 36.74 11.2787 37.628V41H10.4027V39.26L10.7147 39.488C10.6187 39.808 10.4507 40.096 10.2107 40.352C9.97069 40.6 9.68669 40.796 9.35869 40.94C9.03069 41.076 8.67469 41.144 8.29069 41.144ZM14.6922 41V40.088L16.7562 35H17.6922V35.096L15.2562 41H14.6922ZM14.3802 41L11.9442 35.096V35H12.8802L14.9442 40.088V41H14.3802ZM18.6525 41V35H19.5525V41H18.6525ZM19.1085 33.824C18.9245 33.824 18.7685 33.76 18.6405 33.632C18.5125 33.504 18.4485 33.348 18.4485 33.164C18.4485 32.98 18.5125 32.824 18.6405 32.696C18.7685 32.568 18.9245 32.504 19.1085 32.504C19.2925 32.504 19.4485 32.568 19.5765 32.696C19.7045 32.824 19.7685 32.98 19.7685 33.164C19.7685 33.348 19.7045 33.504 19.5765 33.632C19.4485 33.76 19.2925 33.824 19.1085 33.824ZM21.2306 41V35H22.1066V36.74L21.8426 36.512C21.9466 36.176 22.1186 35.884 22.3586 35.636C22.5986 35.388 22.8786 35.196 23.1986 35.06C23.5266 34.924 23.8746 34.856 24.2426 34.856C24.6746 34.856 25.0586 34.948 25.3946 35.132C25.7306 35.316 25.9906 35.588 26.1746 35.948C26.3666 36.308 26.4626 36.756 26.4626 37.292V41H25.5626V37.496C25.5626 37.04 25.4946 36.688 25.3586 36.44C25.2226 36.184 25.0386 36.004 24.8066 35.9C24.5826 35.796 24.3266 35.744 24.0386 35.744C23.7106 35.744 23.3986 35.824 23.1026 35.984C22.8146 36.144 22.5786 36.376 22.3946 36.68C22.2186 36.976 22.1306 37.336 22.1306 37.76V41H21.2306ZM29.9369 43.4C29.1609 43.4 28.5569 43.24 28.1249 42.92C27.7009 42.6 27.4889 42.168 27.4889 41.624C27.4889 41.288 27.5689 40.988 27.7289 40.724C27.8969 40.46 28.1409 40.256 28.4609 40.112L28.9289 40.604C28.7529 40.684 28.6129 40.804 28.5089 40.964C28.4129 41.116 28.3649 41.284 28.3649 41.468C28.3649 41.788 28.4969 42.048 28.7609 42.248C29.0329 42.456 29.4009 42.56 29.8649 42.56H30.6929C31.1729 42.56 31.5529 42.476 31.8329 42.308C32.1129 42.14 32.2529 41.896 32.2529 41.576C32.2529 41.344 32.1609 41.16 31.9769 41.024C31.8009 40.888 31.5369 40.82 31.1849 40.82H29.5169C29.2049 40.82 28.9209 40.764 28.6649 40.652C28.4169 40.54 28.2169 40.384 28.0649 40.184C27.9209 39.984 27.8489 39.748 27.8489 39.476C27.8489 39.22 27.9209 38.984 28.0649 38.768C28.2169 38.544 28.4609 38.372 28.7969 38.252L29.2889 38.72C29.0729 38.768 28.9209 38.852 28.8329 38.972C28.7449 39.092 28.7009 39.228 28.7009 39.38C28.7009 39.58 28.7769 39.736 28.9289 39.848C29.0889 39.952 29.3009 40.004 29.5649 40.004H31.1849C31.7769 40.004 32.2449 40.152 32.5889 40.448C32.9409 40.736 33.1169 41.116 33.1169 41.588C33.1169 42.148 32.8969 42.588 32.4569 42.908C32.0169 43.236 31.4289 43.4 30.6929 43.4H29.9369ZM30.3449 39.128C29.8809 39.128 29.4689 39.04 29.1089 38.864C28.7569 38.68 28.4809 38.428 28.2809 38.108C28.0809 37.78 27.9809 37.408 27.9809 36.992C27.9809 36.568 28.0809 36.196 28.2809 35.876C28.4809 35.556 28.7569 35.308 29.1089 35.132C29.4689 34.948 29.8809 34.856 30.3449 34.856C30.8169 34.856 31.2289 34.948 31.5809 35.132C31.9329 35.308 32.2089 35.556 32.4089 35.876C32.6089 36.196 32.7089 36.568 32.7089 36.992C32.7089 37.408 32.6089 37.78 32.4089 38.108C32.2089 38.428 31.9329 38.68 31.5809 38.864C31.2289 39.04 30.8169 39.128 30.3449 39.128ZM30.3449 38.312C30.7929 38.312 31.1529 38.192 31.4249 37.952C31.7049 37.704 31.8449 37.384 31.8449 36.992C31.8449 36.6 31.7049 36.284 31.4249 36.044C31.1529 35.796 30.7929 35.672 30.3449 35.672C29.8969 35.672 29.5329 35.796 29.2529 36.044C28.9809 36.284 28.8449 36.6 28.8449 36.992C28.8449 37.384 28.9809 37.704 29.2529 37.952C29.5329 38.192 29.8969 38.312 30.3449 38.312ZM31.9529 35.72L31.3529 35.3C31.3529 34.996 31.4169 34.728 31.5449 34.496C31.6729 34.256 31.8409 34.068 32.0489 33.932C32.2649 33.796 32.5049 33.728 32.7689 33.728C32.8249 33.728 32.8889 33.732 32.9609 33.74C33.0329 33.74 33.0889 33.748 33.1289 33.764V34.604L33.0689 34.736C32.9889 34.712 32.8969 34.7 32.7929 34.7C32.5129 34.7 32.3009 34.796 32.1569 34.988C32.0209 35.172 31.9529 35.416 31.9529 35.72ZM36.1233 41.144C35.5073 41.144 34.9873 40.996 34.5633 40.7C34.1393 40.396 33.8593 39.972 33.7233 39.428L34.5513 39.224L34.6833 39.248C34.7713 39.568 34.9553 39.82 35.2353 40.004C35.5153 40.18 35.8433 40.268 36.2193 40.268C36.5953 40.268 36.9153 40.184 37.1793 40.016C37.4513 39.84 37.5873 39.612 37.5873 39.332C37.5873 39.1 37.5073 38.916 37.3473 38.78C37.1953 38.636 36.9633 38.528 36.6513 38.456L35.5473 38.204C34.9873 38.076 34.5753 37.872 34.3113 37.592C34.0553 37.304 33.9273 36.964 33.9273 36.572C33.9273 36.236 34.0193 35.94 34.2033 35.684C34.3873 35.428 34.6393 35.228 34.9593 35.084C35.2873 34.932 35.6593 34.856 36.0753 34.856C36.6833 34.856 37.1953 35.008 37.6113 35.312C38.0273 35.616 38.3033 36.044 38.4393 36.596L37.5993 36.776L37.4673 36.752C37.3873 36.424 37.2113 36.172 36.9393 35.996C36.6753 35.82 36.3793 35.732 36.0513 35.732C35.7073 35.732 35.4193 35.808 35.1873 35.96C34.9633 36.112 34.8513 36.304 34.8513 36.536C34.8513 36.736 34.9233 36.904 35.0673 37.04C35.2193 37.168 35.4593 37.268 35.7873 37.34L36.9033 37.592C37.4553 37.72 37.8593 37.924 38.1153 38.204C38.3793 38.484 38.5113 38.84 38.5113 39.272C38.5113 39.656 38.4073 39.988 38.1993 40.268C37.9913 40.548 37.7073 40.764 37.3473 40.916C36.9953 41.068 36.5873 41.144 36.1233 41.144Z" fill="#02DCA2"/>
<defs>
<linearGradient id="paint0_linear_156_61" x1="19.5" y1="1" x2="19.5" y2="23" gradientUnits="userSpaceOnUse">
<stop stop-color="#017657"/>
<stop offset="1" stop-color="#02DCA2"/>
</linearGradient>
</defs>
</svg>
