<svg width="67" height="46" viewBox="0 0 67 46" fill="none" xmlns="http://www.w3.org/2000/svg">
<path d="M44.5 4.1875C44.5 5.00391 43.8555 5.69141 42.8242 6.25C41.5781 6.98047 39.7305 7.45312 37.582 7.58203C37.4102 7.53906 37.2383 7.45312 37.1094 7.36719C35.3906 6.67969 33.1562 6.25 30.75 6.25C30.3633 6.25 30.0195 6.29297 29.6758 6.29297L29.6328 6.25C28.6016 5.69141 28 5.00391 28 4.1875C28 2.29688 31.6523 0.75 36.25 0.75C40.8047 0.75 44.5 2.29688 44.5 4.1875ZM29.375 7.71094C29.8047 7.66797 30.2773 7.625 30.75 7.625C33.4141 7.625 35.7773 8.18359 37.2812 9C38.3555 9.55859 39 10.2891 39 11.0625C39 11.2344 38.957 11.4062 38.8711 11.5781C38.6992 12.1367 38.1406 12.6523 37.3672 13.125H37.3242C35.8203 13.9844 33.4141 14.5 30.75 14.5C28.1719 14.5 25.8945 14.0273 24.3477 13.2539C24.2617 13.2109 24.2188 13.168 24.1328 13.125C23.1016 12.5664 22.5 11.8359 22.5 11.0625C22.5 9.60156 24.7773 8.3125 28 7.83984C28.4297 7.75391 28.9023 7.71094 29.375 7.71094ZM39.3008 8.78516C40.5469 8.61328 41.6641 8.3125 42.6094 7.92578C43.2969 7.625 43.9414 7.23828 44.5 6.80859V8.3125C44.5 9.17188 43.7695 9.94531 42.6094 10.5039C41.9648 10.8477 41.1914 11.1055 40.332 11.3203C40.332 11.2344 40.375 11.1484 40.375 11.0625C40.375 10.1602 39.9023 9.38672 39.3008 8.78516ZM39 15.1875C39 15.9609 38.3555 16.6914 37.3242 17.25C37.2383 17.293 37.1953 17.3359 37.1094 17.3789C35.5625 18.1523 33.2852 18.625 30.75 18.625C28.043 18.625 25.6367 18.1094 24.1328 17.25C23.1016 16.6914 22.5 15.9609 22.5 15.1875V13.6836C23.0156 14.1133 23.6602 14.5 24.3477 14.8008C26.0664 15.4883 28.3008 15.875 30.75 15.875C33.1562 15.875 35.3906 15.4883 37.1094 14.8008C37.4102 14.6289 37.7539 14.5 38.0547 14.3281C38.3125 14.1562 38.5703 13.9844 38.7852 13.8125C38.8711 13.7695 38.9141 13.7266 39 13.6836V15.1875ZM40.375 12.7383C41.1484 12.5234 41.9219 12.3086 42.6094 12.0508C43.2969 11.75 43.9414 11.3633 44.5 10.9336V12.4375C44.5 12.9102 44.2852 13.3398 43.8555 13.7695C43.125 14.5 41.9219 15.0586 40.332 15.4453C40.332 15.3594 40.375 15.2734 40.375 15.1875V12.7383ZM30.75 20C33.1562 20 35.3906 19.6133 37.1094 18.9258C37.7969 18.625 38.4414 18.2383 39 17.8086V19.3125C39 21.2461 35.3047 22.75 30.75 22.75C26.1523 22.75 22.5 21.2461 22.5 19.3125V17.8086C23.0156 18.2383 23.6602 18.625 24.3477 18.9258C26.0664 19.6133 28.3008 20 30.75 20Z" fill="url(#paint0_linear_156_60)"/>
<path d="M3.036 41C2.54 41 2.132 40.84 1.812 40.52C1.492 40.2 1.332 39.768 1.332 39.224V33.368H2.232V39.164C2.232 39.516 2.304 39.764 2.448 39.908C2.6 40.052 2.848 40.124 3.192 40.124H3.936L3.996 40.256V41H3.036ZM0.3 35.876V35H3.996V35.876H0.3ZM5.37516 41V35H6.25116V36.74L5.98716 36.512C6.12316 36.048 6.38316 35.68 6.76716 35.408C7.15916 35.136 7.59916 35 8.08716 35H8.71116V35.876H7.94316C7.61516 35.876 7.32316 35.956 7.06716 36.116C6.81916 36.276 6.62316 36.496 6.47916 36.776C6.34316 37.056 6.27516 37.384 6.27516 37.76V41H5.37516ZM11.3376 41.144C10.9296 41.144 10.5616 41.064 10.2336 40.904C9.91356 40.744 9.66156 40.524 9.47756 40.244C9.29356 39.964 9.20156 39.64 9.20156 39.272C9.20156 38.752 9.38556 38.332 9.75356 38.012C10.1296 37.684 10.6456 37.496 11.3016 37.448L13.6056 37.28V38.12L11.5056 38.276C11.0416 38.308 10.6936 38.408 10.4616 38.576C10.2376 38.744 10.1256 38.976 10.1256 39.272C10.1256 39.56 10.2416 39.8 10.4736 39.992C10.7136 40.176 11.0216 40.268 11.3976 40.268C11.7736 40.268 12.1136 40.184 12.4176 40.016C12.7296 39.84 12.9736 39.608 13.1496 39.32C13.3336 39.024 13.4256 38.696 13.4256 38.336V37.364C13.4256 36.884 13.2776 36.492 12.9816 36.188C12.6936 35.876 12.3016 35.72 11.8056 35.72C11.4296 35.72 11.1056 35.812 10.8336 35.996C10.5616 36.172 10.3696 36.432 10.2576 36.776H10.1256L9.33356 36.488C9.52556 35.952 9.83756 35.544 10.2696 35.264C10.7016 34.984 11.2176 34.844 11.8176 34.844C12.6256 34.844 13.2456 35.088 13.6776 35.576C14.1096 36.056 14.3256 36.74 14.3256 37.628V41H13.4496V39.26L13.7616 39.488C13.6656 39.808 13.4976 40.096 13.2576 40.352C13.0176 40.6 12.7336 40.796 12.4056 40.94C12.0776 41.076 11.7216 41.144 11.3376 41.144ZM15.9455 41V35H16.8215V36.74L16.5575 36.512C16.6615 36.176 16.8335 35.884 17.0735 35.636C17.3135 35.388 17.5935 35.196 17.9135 35.06C18.2415 34.924 18.5895 34.856 18.9575 34.856C19.3895 34.856 19.7735 34.948 20.1095 35.132C20.4455 35.316 20.7055 35.588 20.8895 35.948C21.0815 36.308 21.1775 36.756 21.1775 37.292V41H20.2775V37.496C20.2775 37.04 20.2095 36.688 20.0735 36.44C19.9375 36.184 19.7535 36.004 19.5215 35.9C19.2975 35.796 19.0415 35.744 18.7535 35.744C18.4255 35.744 18.1135 35.824 17.8175 35.984C17.5295 36.144 17.2935 36.376 17.1095 36.68C16.9335 36.976 16.8455 37.336 16.8455 37.76V41H15.9455ZM24.7209 41.144C24.1049 41.144 23.5849 40.996 23.1609 40.7C22.7369 40.396 22.4569 39.972 22.3209 39.428L23.1489 39.224L23.2809 39.248C23.3689 39.568 23.5529 39.82 23.8329 40.004C24.1129 40.18 24.4409 40.268 24.8169 40.268C25.1929 40.268 25.5129 40.184 25.7769 40.016C26.0489 39.84 26.1849 39.612 26.1849 39.332C26.1849 39.1 26.1049 38.916 25.9449 38.78C25.7929 38.636 25.5609 38.528 25.2489 38.456L24.1449 38.204C23.5849 38.076 23.1729 37.872 22.9089 37.592C22.6529 37.304 22.5249 36.964 22.5249 36.572C22.5249 36.236 22.6169 35.94 22.8009 35.684C22.9849 35.428 23.2369 35.228 23.5569 35.084C23.8849 34.932 24.2569 34.856 24.6729 34.856C25.2809 34.856 25.7929 35.008 26.2089 35.312C26.6249 35.616 26.9009 36.044 27.0369 36.596L26.1969 36.776L26.0649 36.752C25.9849 36.424 25.8089 36.172 25.5369 35.996C25.2729 35.82 24.9769 35.732 24.6489 35.732C24.3049 35.732 24.0169 35.808 23.7849 35.96C23.5609 36.112 23.4489 36.304 23.4489 36.536C23.4489 36.736 23.5209 36.904 23.6649 37.04C23.8169 37.168 24.0569 37.268 24.3849 37.34L25.5009 37.592C26.0529 37.72 26.4569 37.924 26.7129 38.204C26.9769 38.484 27.1089 38.84 27.1089 39.272C27.1089 39.656 27.0049 39.988 26.7969 40.268C26.5889 40.548 26.3049 40.764 25.9449 40.916C25.5929 41.068 25.1849 41.144 24.7209 41.144ZM30.2516 41.144C29.8436 41.144 29.4756 41.064 29.1476 40.904C28.8276 40.744 28.5756 40.524 28.3916 40.244C28.2076 39.964 28.1156 39.64 28.1156 39.272C28.1156 38.752 28.2996 38.332 28.6676 38.012C29.0436 37.684 29.5596 37.496 30.2156 37.448L32.5196 37.28V38.12L30.4196 38.276C29.9556 38.308 29.6076 38.408 29.3756 38.576C29.1516 38.744 29.0396 38.976 29.0396 39.272C29.0396 39.56 29.1556 39.8 29.3876 39.992C29.6276 40.176 29.9356 40.268 30.3116 40.268C30.6876 40.268 31.0276 40.184 31.3316 40.016C31.6436 39.84 31.8876 39.608 32.0636 39.32C32.2476 39.024 32.3396 38.696 32.3396 38.336V37.364C32.3396 36.884 32.1916 36.492 31.8956 36.188C31.6076 35.876 31.2156 35.72 30.7196 35.72C30.3436 35.72 30.0196 35.812 29.7476 35.996C29.4756 36.172 29.2836 36.432 29.1716 36.776H29.0396L28.2476 36.488C28.4396 35.952 28.7516 35.544 29.1836 35.264C29.6156 34.984 30.1316 34.844 30.7316 34.844C31.5396 34.844 32.1596 35.088 32.5916 35.576C33.0236 36.056 33.2396 36.74 33.2396 37.628V41H32.3636V39.26L32.6756 39.488C32.5796 39.808 32.4116 40.096 32.1716 40.352C31.9316 40.6 31.6476 40.796 31.3196 40.94C30.9916 41.076 30.6356 41.144 30.2516 41.144ZM37.4875 41.144C36.9035 41.144 36.3835 41.012 35.9275 40.748C35.4795 40.484 35.1275 40.116 34.8715 39.644C34.6235 39.172 34.4995 38.624 34.4995 38C34.4995 37.376 34.6235 36.828 34.8715 36.356C35.1275 35.884 35.4795 35.516 35.9275 35.252C36.3835 34.988 36.9035 34.856 37.4875 34.856C37.9355 34.856 38.3395 34.94 38.6995 35.108C39.0595 35.268 39.3675 35.5 39.6235 35.804C39.8875 36.1 40.0835 36.456 40.2115 36.872L39.4075 37.1H39.2755C39.1315 36.676 38.9035 36.344 38.5915 36.104C38.2795 35.856 37.9115 35.732 37.4875 35.732C37.0635 35.732 36.6955 35.828 36.3835 36.02C36.0715 36.212 35.8275 36.48 35.6515 36.824C35.4835 37.16 35.3995 37.552 35.3995 38C35.3995 38.44 35.4835 38.832 35.6515 39.176C35.8275 39.52 36.0715 39.788 36.3835 39.98C36.6955 40.172 37.0635 40.268 37.4875 40.268C37.7835 40.268 38.0475 40.216 38.2795 40.112C38.5195 40 38.7275 39.844 38.9035 39.644C39.0795 39.436 39.2195 39.188 39.3235 38.9H39.4555L40.2595 39.128C40.1155 39.552 39.9075 39.916 39.6355 40.22C39.3715 40.524 39.0595 40.756 38.6995 40.916C38.3395 41.068 37.9355 41.144 37.4875 41.144ZM43.4774 41C42.9814 41 42.5734 40.84 42.2534 40.52C41.9334 40.2 41.7734 39.768 41.7734 39.224V33.368H42.6734V39.164C42.6734 39.516 42.7454 39.764 42.8894 39.908C43.0414 40.052 43.2894 40.124 43.6334 40.124H44.3774L44.4374 40.256V41H43.4774ZM40.7414 35.876V35H44.4374V35.876H40.7414ZM45.8166 41V35H46.7166V41H45.8166ZM46.2726 33.824C46.0886 33.824 45.9326 33.76 45.8046 33.632C45.6766 33.504 45.6126 33.348 45.6126 33.164C45.6126 32.98 45.6766 32.824 45.8046 32.696C45.9326 32.568 46.0886 32.504 46.2726 32.504C46.4566 32.504 46.6126 32.568 46.7406 32.696C46.8686 32.824 46.9326 32.98 46.9326 33.164C46.9326 33.348 46.8686 33.504 46.7406 33.632C46.6126 33.76 46.4566 33.824 46.2726 33.824ZM50.9867 41.144C50.4107 41.144 49.8987 41.012 49.4507 40.748C49.0107 40.484 48.6627 40.116 48.4067 39.644C48.1587 39.172 48.0347 38.624 48.0347 38C48.0347 37.376 48.1587 36.828 48.4067 36.356C48.6627 35.884 49.0107 35.516 49.4507 35.252C49.8987 34.988 50.4107 34.856 50.9867 34.856C51.5707 34.856 52.0827 34.988 52.5227 35.252C52.9627 35.516 53.3067 35.884 53.5547 36.356C53.8107 36.828 53.9387 37.376 53.9387 38C53.9387 38.624 53.8107 39.172 53.5547 39.644C53.3067 40.116 52.9627 40.484 52.5227 40.748C52.0827 41.012 51.5707 41.144 50.9867 41.144ZM50.9867 40.268C51.3867 40.268 51.7387 40.176 52.0427 39.992C52.3547 39.8 52.5987 39.536 52.7747 39.2C52.9507 38.856 53.0387 38.456 53.0387 38C53.0387 37.536 52.9507 37.136 52.7747 36.8C52.5987 36.464 52.3547 36.204 52.0427 36.02C51.7387 35.828 51.3867 35.732 50.9867 35.732C50.5867 35.732 50.2307 35.828 49.9187 36.02C49.6147 36.204 49.3747 36.464 49.1987 36.8C49.0227 37.136 48.9347 37.536 48.9347 38C48.9347 38.456 49.0227 38.856 49.1987 39.2C49.3747 39.536 49.6147 39.8 49.9187 39.992C50.2307 40.176 50.5867 40.268 50.9867 40.268ZM55.2619 41V35H56.1379V36.74L55.8739 36.512C55.9779 36.176 56.1499 35.884 56.3899 35.636C56.6299 35.388 56.9099 35.196 57.2299 35.06C57.5579 34.924 57.9059 34.856 58.2739 34.856C58.7059 34.856 59.0899 34.948 59.4259 35.132C59.7619 35.316 60.0219 35.588 60.2059 35.948C60.3979 36.308 60.4939 36.756 60.4939 37.292V41H59.5939V37.496C59.5939 37.04 59.5259 36.688 59.3899 36.44C59.2539 36.184 59.0699 36.004 58.8379 35.9C58.6139 35.796 58.3579 35.744 58.0699 35.744C57.7419 35.744 57.4299 35.824 57.1339 35.984C56.8459 36.144 56.6099 36.376 56.4259 36.68C56.2499 36.976 56.1619 37.336 56.1619 37.76V41H55.2619ZM64.0373 41.144C63.4213 41.144 62.9013 40.996 62.4773 40.7C62.0533 40.396 61.7733 39.972 61.6373 39.428L62.4653 39.224L62.5973 39.248C62.6853 39.568 62.8693 39.82 63.1493 40.004C63.4293 40.18 63.7573 40.268 64.1333 40.268C64.5093 40.268 64.8293 40.184 65.0933 40.016C65.3653 39.84 65.5013 39.612 65.5013 39.332C65.5013 39.1 65.4213 38.916 65.2613 38.78C65.1093 38.636 64.8773 38.528 64.5653 38.456L63.4613 38.204C62.9013 38.076 62.4893 37.872 62.2253 37.592C61.9693 37.304 61.8413 36.964 61.8413 36.572C61.8413 36.236 61.9333 35.94 62.1173 35.684C62.3013 35.428 62.5533 35.228 62.8733 35.084C63.2013 34.932 63.5733 34.856 63.9893 34.856C64.5973 34.856 65.1093 35.008 65.5253 35.312C65.9413 35.616 66.2173 36.044 66.3533 36.596L65.5133 36.776L65.3813 36.752C65.3013 36.424 65.1253 36.172 64.8533 35.996C64.5893 35.82 64.2933 35.732 63.9653 35.732C63.6213 35.732 63.3333 35.808 63.1013 35.96C62.8773 36.112 62.7653 36.304 62.7653 36.536C62.7653 36.736 62.8373 36.904 62.9813 37.04C63.1333 37.168 63.3733 37.268 63.7013 37.34L64.8173 37.592C65.3693 37.72 65.7733 37.924 66.0293 38.204C66.2933 38.484 66.4253 38.84 66.4253 39.272C66.4253 39.656 66.3213 39.988 66.1133 40.268C65.9053 40.548 65.6213 40.764 65.2613 40.916C64.9093 41.068 64.5013 41.144 64.0373 41.144Z" fill="#E6938B"/>
<defs>
<linearGradient id="paint0_linear_156_60" x1="33.5" y1="1" x2="33.5" y2="23" gradientUnits="userSpaceOnUse">
<stop stop-color="#EE5053"/>
<stop offset="1" stop-color="#E6938B"/>
</linearGradient>
</defs>
</svg>
