<svg width="36" height="44" viewBox="0 0 36 44" fill="none" xmlns="http://www.w3.org/2000/svg">
<path d="M26.25 1.125C26.9805 1.125 27.625 1.76953 27.625 2.5C27.625 3.27344 26.9805 3.875 26.25 3.875H10.4375C10.0508 3.875 9.75 4.21875 9.75 4.5625C9.75 4.94922 10.0508 5.25 10.4375 5.25H26.25C27.7539 5.25 29 6.49609 29 8V17.625C29 19.1719 27.7539 20.375 26.25 20.375H9.75C8.20312 20.375 7 19.1719 7 17.625V3.875C7 2.37109 8.20312 1.125 9.75 1.125H26.25ZM24.875 14.1875C25.6055 14.1875 26.25 13.5859 26.25 12.8125C26.25 12.082 25.6055 11.4375 24.875 11.4375C24.1016 11.4375 23.5 12.082 23.5 12.8125C23.5 13.5859 24.1016 14.1875 24.875 14.1875Z" fill="url(#paint0_linear_156_59)"/>
<path d="M2.112 40L0.18 34.096V34H1.08L2.688 39.04L2.952 40H2.112ZM2.112 40L2.448 39.04L4.164 34H4.98V34.096L2.952 40H2.112ZM6.192 40L4.164 34.096V34H4.98L6.696 39.04L7.032 40H6.192ZM6.192 40L6.456 39.04L8.052 34H8.964V34.096L7.032 40H6.192ZM11.6423 40.144C11.2343 40.144 10.8663 40.064 10.5383 39.904C10.2183 39.744 9.96625 39.524 9.78225 39.244C9.59825 38.964 9.50625 38.64 9.50625 38.272C9.50625 37.752 9.69025 37.332 10.0583 37.012C10.4343 36.684 10.9503 36.496 11.6063 36.448L13.9103 36.28V37.12L11.8103 37.276C11.3463 37.308 10.9983 37.408 10.7663 37.576C10.5423 37.744 10.4303 37.976 10.4303 38.272C10.4303 38.56 10.5463 38.8 10.7783 38.992C11.0183 39.176 11.3263 39.268 11.7023 39.268C12.0783 39.268 12.4183 39.184 12.7223 39.016C13.0343 38.84 13.2783 38.608 13.4543 38.32C13.6383 38.024 13.7303 37.696 13.7303 37.336V36.364C13.7303 35.884 13.5823 35.492 13.2863 35.188C12.9983 34.876 12.6063 34.72 12.1103 34.72C11.7343 34.72 11.4103 34.812 11.1383 34.996C10.8663 35.172 10.6743 35.432 10.5623 35.776H10.4303L9.63825 35.488C9.83025 34.952 10.1423 34.544 10.5743 34.264C11.0063 33.984 11.5223 33.844 12.1223 33.844C12.9303 33.844 13.5503 34.088 13.9823 34.576C14.4143 35.056 14.6303 35.74 14.6303 36.628V40H13.7543V38.26L14.0663 38.488C13.9703 38.808 13.8023 39.096 13.5623 39.352C13.3223 39.6 13.0383 39.796 12.7103 39.94C12.3823 40.076 12.0263 40.144 11.6423 40.144ZM16.4273 40V31.36L17.2913 31.252L17.3273 31.348V40H16.4273ZM19.1227 40V31.36L19.9867 31.252L20.0227 31.348V40H19.1227ZM24.314 40.144C23.746 40.144 23.242 40.012 22.802 39.748C22.362 39.484 22.018 39.116 21.77 38.644C21.522 38.172 21.398 37.624 21.398 37C21.398 36.376 21.518 35.828 21.758 35.356C22.006 34.884 22.346 34.516 22.778 34.252C23.218 33.988 23.722 33.856 24.29 33.856C24.85 33.856 25.338 33.992 25.754 34.264C26.178 34.528 26.51 34.904 26.75 35.392C26.99 35.872 27.11 36.432 27.11 37.072V37.18L26.93 37.348H21.926V36.472H26.582L26.186 36.64C26.154 36.24 26.05 35.9 25.874 35.62C25.698 35.332 25.474 35.112 25.202 34.96C24.93 34.808 24.626 34.732 24.29 34.732C23.922 34.732 23.586 34.824 23.282 35.008C22.978 35.184 22.738 35.436 22.562 35.764C22.386 36.092 22.298 36.472 22.298 36.904V37.06C22.298 37.492 22.382 37.876 22.55 38.212C22.726 38.54 22.966 38.8 23.27 38.992C23.574 39.176 23.922 39.268 24.314 39.268C24.706 39.268 25.042 39.176 25.322 38.992C25.602 38.808 25.822 38.556 25.982 38.236H26.114L26.87 38.572C26.646 39.052 26.31 39.436 25.862 39.724C25.422 40.004 24.906 40.144 24.314 40.144ZM30.3876 40C29.8916 40 29.4836 39.84 29.1636 39.52C28.8436 39.2 28.6836 38.768 28.6836 38.224V32.368H29.5836V38.164C29.5836 38.516 29.6556 38.764 29.7996 38.908C29.9516 39.052 30.1996 39.124 30.5436 39.124H31.2876L31.3476 39.256V40H30.3876ZM27.6516 34.876V34H31.3476V34.876H27.6516Z" fill="#FC7F5D"/>
<defs>
<linearGradient id="paint0_linear_156_59" x1="18" y1="0" x2="18" y2="22" gradientUnits="userSpaceOnUse">
<stop stop-color="#F1B86D"/>
<stop offset="1" stop-color="#FC7F5D"/>
</linearGradient>
</defs>
</svg>
