<svg width="71" height="71" viewBox="0 0 71 71" fill="none" xmlns="http://www.w3.org/2000/svg">
<rect width="71" height="71" rx="20" fill="#F5F5F5"/>
<mask id="path-2-inside-1_85_514" fill="white">
<path d="M55.1741 37.9357C55.1741 42.2685 53.8893 46.504 51.4822 50.1065C49.075 53.7091 45.6536 56.517 41.6507 58.175C37.6477 59.8331 33.2429 60.2669 28.9934 59.4217C24.7439 58.5764 20.8405 56.49 17.7767 53.4262C14.713 50.3625 12.6266 46.459 11.7813 42.2095C10.936 37.96 11.3698 33.5553 13.0279 29.5523C14.686 25.5493 17.4939 22.1279 21.0964 19.7208C24.699 17.3136 28.9345 16.0288 33.2672 16.0288V26.9823C31.1009 26.9823 28.9831 27.6247 27.1818 28.8282C25.3806 30.0318 23.9766 31.7425 23.1476 33.744C22.3185 35.7455 22.1016 37.9479 22.5243 40.0726C22.9469 42.1974 23.9901 44.1491 25.522 45.681C27.0539 47.2128 29.0056 48.256 31.1303 48.6787C33.2551 49.1013 35.4575 48.8844 37.4589 48.0554C39.4604 47.2263 41.1711 45.8224 42.3747 44.0211C43.5783 42.2198 44.2207 40.1021 44.2207 37.9357H55.1741Z"/>
</mask>
<path d="M55.1741 37.9357C55.1741 42.2685 53.8893 46.504 51.4822 50.1065C49.075 53.7091 45.6536 56.517 41.6507 58.175C37.6477 59.8331 33.2429 60.2669 28.9934 59.4217C24.7439 58.5764 20.8405 56.49 17.7767 53.4262C14.713 50.3625 12.6266 46.459 11.7813 42.2095C10.936 37.96 11.3698 33.5553 13.0279 29.5523C14.686 25.5493 17.4939 22.1279 21.0964 19.7208C24.699 17.3136 28.9345 16.0288 33.2672 16.0288V26.9823C31.1009 26.9823 28.9831 27.6247 27.1818 28.8282C25.3806 30.0318 23.9766 31.7425 23.1476 33.744C22.3185 35.7455 22.1016 37.9479 22.5243 40.0726C22.9469 42.1974 23.9901 44.1491 25.522 45.681C27.0539 47.2128 29.0056 48.256 31.1303 48.6787C33.2551 49.1013 35.4575 48.8844 37.4589 48.0554C39.4604 47.2263 41.1711 45.8224 42.3747 44.0211C43.5783 42.2198 44.2207 40.1021 44.2207 37.9357H55.1741Z" stroke="#01B381" stroke-width="62" mask="url(#path-2-inside-1_85_514)"/>
<mask id="path-3-inside-2_85_514" fill="white">
<path d="M37.7485 12.171C43.2831 12.3762 48.5346 14.6701 52.4461 18.591C56.3576 22.512 58.6388 27.769 58.8306 33.3041L47.8838 33.6834C47.7878 30.9159 46.6472 28.2874 44.6915 26.3269C42.7357 24.3665 40.11 23.2195 37.3427 23.1169L37.7485 12.171Z"/>
</mask>
<path d="M37.7485 12.171C43.2831 12.3762 48.5346 14.6701 52.4461 18.591C56.3576 22.512 58.6388 27.769 58.8306 33.3041L47.8838 33.6834C47.7878 30.9159 46.6472 28.2874 44.6915 26.3269C42.7357 24.3665 40.11 23.2195 37.3427 23.1169L37.7485 12.171Z" stroke="#539BC2" stroke-width="62" mask="url(#path-3-inside-2_85_514)"/>
<mask id="path-4-inside-3_85_514" fill="white">
<path d="M37.5151 10.8116C41.2737 10.951 44.9331 12.0557 48.1409 14.0193C51.3488 15.983 53.997 18.7395 55.8306 22.0234L46.2671 27.3634C45.3502 25.7215 44.0261 24.3432 42.4222 23.3614C40.8183 22.3796 38.9886 21.8272 37.1093 21.7575L37.5151 10.8116Z"/>
</mask>
<path d="M37.5151 10.8116C41.2737 10.951 44.9331 12.0557 48.1409 14.0193C51.3488 15.983 53.997 18.7395 55.8306 22.0234L46.2671 27.3634C45.3502 25.7215 44.0261 24.3432 42.4222 23.3614C40.8183 22.3796 38.9886 21.8272 37.1093 21.7575L37.5151 10.8116Z" stroke="#F1B86D" stroke-width="62" mask="url(#path-4-inside-3_85_514)"/>
<mask id="path-5-inside-4_85_514" fill="white">
<path d="M37.7485 12.171C41.4253 12.3073 45.0085 13.3675 48.1676 15.2537L42.5522 24.6583C40.9727 23.7152 39.1811 23.1851 37.3427 23.1169L37.7485 12.171Z"/>
</mask>
<path d="M37.7485 12.171C41.4253 12.3073 45.0085 13.3675 48.1676 15.2537L42.5522 24.6583C40.9727 23.7152 39.1811 23.1851 37.3427 23.1169L37.7485 12.171Z" stroke="#EE5053" stroke-width="62" mask="url(#path-5-inside-4_85_514)"/>
</svg>
