<svg width="266" height="69" viewBox="0 0 266 69" fill="none" xmlns="http://www.w3.org/2000/svg">
<path fill-rule="evenodd" clip-rule="evenodd" d="M24.0709 37.2194H14.3206L19.5005 20.3358L24.0709 37.2194ZM9.75023 54.2862L12.7972 43.9973H25.2897L28.3366 54.2862H38.6962L27.7272 15.2371C27.1178 12.6725 25.899 11.8481 23.1568 11.8481H7.92206V15.3592H9.14084C10.969 15.3592 11.8831 15.9393 11.8831 17.3437C11.8831 18.2291 11.8831 18.8092 10.969 20.9158L0 54.2862" fill="#666666"/>
<path d="M51.7982 54.2862V14.9623C51.7982 12.9167 50.5794 11.8481 48.4465 11.8481H39.001V15.3592H39.6104C41.4385 15.3592 42.3526 16.1225 42.3526 17.7712V54.2862" fill="#666666"/>
<path d="M68.8607 54.2862V14.9623C68.8607 12.9167 67.6419 11.8481 65.509 11.8481H56.0635V15.3592H56.6729C58.501 15.3592 59.4151 16.1225 59.4151 17.7712V54.2862" fill="#666666"/>
<path fill-rule="evenodd" clip-rule="evenodd" d="M86.2288 15.6035C86.2288 12.7947 84.096 11.146 80.7443 11.146C77.088 11.146 75.2598 12.7947 75.2598 15.6035C75.2598 18.4734 77.088 20.1526 80.7443 20.1526C84.096 20.1526 86.2288 18.4734 86.2288 15.6035ZM85.9241 54.2863V25.6482C85.9241 23.6637 84.7053 22.5035 82.8772 22.5035H73.4316V25.9535H74.041C75.8692 25.9535 76.4786 26.7168 76.4786 28.4571V54.2863" fill="#666666"/>
<path fill-rule="evenodd" clip-rule="evenodd" d="M108.471 38.8682V45.2186C106.643 47.0505 104.51 48.0886 102.682 48.0886C100.854 48.0886 99.9397 47.2032 99.9397 44.8217C99.9397 42.1961 100.549 41.1886 102.682 40.3642C104.205 39.7231 105.729 39.3262 108.471 38.8682ZM95.0646 31.266L95.9786 30.8996C98.4162 29.9226 99.9397 29.5563 101.768 29.2204C102.682 29.0983 103.901 28.9762 104.51 28.9762C107.557 28.9762 108.471 29.9837 108.471 32.7925V33.5863C104.205 34.2886 102.987 34.5328 100.549 35.0518C99.3303 35.3571 98.1115 35.754 96.8927 36.2731C92.9317 37.8607 91.1035 40.9138 91.1035 45.7071C91.1035 51.7217 93.5411 54.5917 99.0256 54.5917C101.158 54.5917 103.291 54.1032 104.815 53.1262C106.338 52.424 106.948 52.0576 108.776 50.3784V51.3554C108.776 53.3399 109.69 54.2864 111.518 54.2864H120.659V51.0195H120.354C118.526 51.0195 117.612 50.1952 117.612 48.5465V32.9452C117.612 24.824 114.87 22.0762 106.948 22.0762C104.205 22.0762 101.768 22.3815 99.3303 22.9616C96.8927 23.5417 95.6739 23.9691 92.9317 25.404" fill="#666666"/>
<path fill-rule="evenodd" clip-rule="evenodd" d="M134.98 54.2863V32.7315C137.113 30.7469 138.636 29.9837 140.769 29.9837C142.902 29.9837 143.511 30.8996 143.511 34.1359V54.2863H152.957V32.6093C152.957 28.1518 152.347 26.2284 151.129 24.5491C149.605 22.9005 147.777 22.1372 145.035 22.1372C141.378 22.1372 138.636 23.4806 134.37 27.1748V25.4651C134.37 23.4806 133.456 22.5036 131.628 22.5036H122.487V25.9536H122.792C124.62 25.9536 125.534 26.7169 125.534 28.4571V54.2863" fill="#666666"/>
<mask id="mask0_146_44" style="mask-type:luminance" maskUnits="userSpaceOnUse" x="0" y="0" width="266" height="70">
<path d="M0.000976562 0.000139915H266V69.0002H0.000976562V0.000139915Z" fill="white"/>
</mask>
<g mask="url(#mask0_146_44)">
<path d="M182.209 48.2088H168.193L181.599 29.0353V22.5016H161.489C159.052 22.5016 158.138 23.4787 158.138 25.8295V31.5999H161.489V30.9587C161.489 29.2185 162.403 28.5163 164.232 28.5163H171.544L157.833 47.6896V54.2844H182.209" fill="#666666"/>
<path fill-rule="evenodd" clip-rule="evenodd" d="M236.139 52.544V16.5784C236.139 13.678 234.921 12.7315 232.179 12.7315H223.952V16.7007H224.866C226.389 16.7007 226.999 17.2806 226.999 19.0514V52.544H236.139ZM241.014 52.544H249.851V25.4019C249.851 22.6541 248.632 21.555 245.89 21.555H241.014V52.544ZM222.123 52.544V21.555H217.248C214.506 21.555 213.287 22.6541 213.287 25.4019V52.544H222.123ZM260.21 34.4697C260.21 51.2923 248.022 63.5656 231.569 63.5656C215.115 63.5656 202.928 51.2923 202.928 34.4697C202.928 17.6472 215.115 5.37362 231.569 5.37362C248.022 5.37362 260.21 17.6472 260.21 34.4697ZM266 34.4697C266 14.7772 251.374 0.000139915 231.569 0.000139915C212.068 0.000139915 197.139 14.7772 197.139 34.4697C197.139 54.2233 212.068 69.0002 231.569 69.0002C251.374 69.0002 266 54.2233 266 34.4697Z" fill="#666666"/>
</g>
</svg>
