<svg width="88" height="87" viewBox="0 0 88 87" fill="none" xmlns="http://www.w3.org/2000/svg">
<g clip-path="url(#clip0_146_75)">
<path d="M87.3853 40.7526C86.0116 18.0868 67.1235 0 43.9998 0C20.8761 0 1.98794 18.0868 0.614258 40.7526C0.614258 41.6684 0.728732 42.5842 0.843205 43.5C1.75899 51.0553 4.62084 58.0382 8.97084 63.8763C16.8695 74.6368 29.5761 81.6197 43.9998 81.6197C23.8524 81.6197 7.36821 65.9368 5.99452 46.2474C5.88005 45.3316 5.88005 44.4158 5.88005 43.5C5.88005 42.5842 5.88005 41.6684 5.99452 40.7526C7.36821 21.0632 23.8524 5.38026 43.9998 5.38026C58.4235 5.38026 71.1301 12.3632 79.0287 23.1237C83.3787 28.9618 86.2406 35.9447 87.1564 43.5C87.2708 44.4158 87.3853 45.3316 87.3853 46.1329C87.3853 45.2171 87.4998 44.3013 87.4998 43.3855C87.4998 42.5842 87.4998 41.6684 87.3853 40.7526Z" fill="#666666"/>
<path d="M0.614474 46.2475C1.98816 68.9133 20.8763 87.0001 44 87.0001C67.1237 87.0001 86.0118 68.9133 87.3855 46.2475C87.3855 45.3317 87.2711 44.4159 87.1566 43.5001C86.2408 35.9448 83.379 28.9619 79.029 23.1238C71.1303 12.3633 58.4237 5.38037 44 5.38037C64.1474 5.38037 80.6316 21.0633 82.0053 40.7527C82.1197 41.6685 82.1197 42.5843 82.1197 43.5001C82.1197 44.4159 82.1197 45.3317 82.0053 46.2475C80.6316 66.0514 64.1474 81.6198 44 81.6198C29.5763 81.6198 16.8697 74.6369 8.97105 63.8764C4.62105 58.0383 1.75921 51.0554 0.843421 43.5001C0.728947 42.5843 0.614474 41.6685 0.614474 40.8672C0.614474 41.783 0.5 42.6988 0.5 43.6146C0.5 44.4159 0.5 45.3317 0.614474 46.2475Z" fill="#666666" fill-opacity="0.4"/>
<path d="M38.6201 8.35669V20.3765H46.9767C49.0372 20.3765 50.6399 18.7738 50.6399 16.7133C50.6399 15.683 50.182 14.7672 49.4951 14.0803C49.953 13.508 50.2964 12.7067 50.4108 11.9053C50.4108 9.95929 48.8082 8.35669 46.8622 8.35669H38.6201ZM41.3674 10.8751H46.4042C46.9766 10.8751 47.4346 11.333 47.4346 11.9053C47.4346 12.4777 46.9766 12.9356 46.4042 12.9356H41.3674V10.8751ZM41.3674 15.454H46.5188C47.2056 15.454 47.6635 15.9119 47.6635 16.5988C47.6635 17.2856 47.2056 17.7435 46.5188 17.7435H41.3674V15.454Z" fill="#666666"/>
<path d="M42.6265 22.6658L36.6738 34.6855H39.7647L40.6804 32.6251H47.4345L48.3502 34.6855H51.4409L45.3738 22.6658H42.6265ZM44.0002 25.7567L46.0607 30.1067H41.9397L44.0002 25.7567Z" fill="#666666"/>
<path d="M48.1214 37.3186H51.5556L45.4885 45.1028V49.3383H42.6267V45.1028L36.5596 37.3186H39.9938L44.1148 42.8133L48.1214 37.3186Z" fill="#666666"/>
<path d="M67.8105 37.3186V49.3384H70.6724V44.7595H72.8474L76.2817 49.3384H79.7158L76.1671 44.645C77.6553 44.1871 78.8001 42.8134 78.8001 41.0963C78.8001 39.0358 77.1974 37.3186 75.1369 37.3186H67.8105ZM70.7869 39.837H74.908C75.4804 39.837 76.0528 40.4094 76.0528 40.9818C76.0528 41.5541 75.5949 42.1265 74.908 42.1265H70.7869V39.837Z" fill="#666666"/>
<path d="M9.31445 37.3186V49.3384H17.671C19.7316 49.3384 21.3342 47.7357 21.3342 45.6752C21.3342 44.6449 20.8763 43.7291 20.1895 43.0422C20.6473 42.4699 20.9907 41.6686 21.1052 40.8673C21.1052 38.9212 19.5026 37.3186 17.5565 37.3186H9.31445ZM12.0618 39.837H17.0986C17.6709 39.837 18.129 40.2949 18.129 40.8673C18.129 41.4396 17.6709 41.8975 17.0986 41.8975H12.0618V39.837ZM12.0618 44.4159H17.2131C17.8999 44.4159 18.3579 44.8738 18.3579 45.5607C18.3579 46.2475 17.8999 46.7054 17.2131 46.7054H12.0618V44.4159Z" fill="#666666"/>
<path d="M29.0045 37.3186L23.0518 49.3384H26.1426L27.0583 47.2779H33.8124L34.7281 49.3384H37.8188L31.7518 37.3186H29.0045ZM30.3781 40.4095L32.4386 44.7595H28.3176L30.3781 40.4095Z" fill="#666666"/>
<path d="M64.0332 37.3186V39.9023H56.02V41.9243H63.8043V44.508H56.02V46.7547H64.0332V49.3384H53.1582V37.3186H64.0332Z" fill="#666666"/>
<path d="M38.5049 66.8528V78.8725H41.3667V74.2937H43.5417L46.976 78.8725H50.4101L46.8615 74.1791C48.3496 73.7212 49.4944 72.3476 49.4944 70.6305C49.4944 68.57 47.8918 66.8528 45.8312 66.8528H38.5049ZM41.4812 69.3712H45.6024C46.1747 69.3712 46.7471 69.9436 46.7471 70.516C46.7471 71.0883 46.2892 71.6607 45.6024 71.6607H41.4812V69.3712Z" fill="#666666"/>
<path d="M49.4951 51.9443V54.528H41.482V56.55H49.2662V59.1337H41.482V61.3804H49.4951V63.9641H38.6201V51.9443H49.4951Z" fill="#666666"/>
</g>
<defs>
<clipPath id="clip0_146_75">
<rect width="87" height="87" fill="white" transform="translate(0.5)"/>
</clipPath>
</defs>
</svg>
