<svg width="196" height="41" viewBox="0 0 196 41" fill="none" xmlns="http://www.w3.org/2000/svg">
<g clip-path="url(#clip0_146_58)">
<path d="M32.3386 37.0084C23.2724 37.0084 15.9248 29.618 15.9248 20.502C15.9248 11.3855 23.2724 4.00224 32.3386 4.00224C35.5342 4.00224 38.5177 4.91844 41.0381 6.50655L32.3386 20.502L48.7162 10.9954C46.9368 8.14538 44.3848 5.68958 41.2989 3.82605C37.3721 1.46264 31.9096 0 25.8695 0C17.2534 0 9.6945 3.14754 5.47908 7.86113C2.35811 11.3456 0.5 15.7311 0.5 20.5018C0.5 25.2759 2.35811 29.6645 5.47908 33.1515C9.70547 37.8709 17.1518 41.0001 25.6258 41.0001C34.0985 41.0001 41.5426 37.8685 45.7717 33.1515C46.0033 32.8917 46.2275 32.6295 46.4396 32.3575L45.801 29.9512C42.8296 34.2149 37.9083 37.0084 32.3386 37.0084Z" fill="#666666"/>
<path d="M86.636 40.0076L79.7622 14.2294C78.658 10.0637 74.8848 7.00195 70.3925 7.00195C69.2273 7.00195 68.111 7.21122 67.075 7.59005L52.2769 12.9996H67.4967L70.0975 22.7639C67.5747 20.5811 64.289 19.253 60.6912 19.253C53.5469 19.253 47.7627 24.0658 47.7627 30.0026C47.7627 35.94 53.5469 40.7599 60.6912 40.7599C65.8343 40.7599 70.3827 38.2286 73.1883 34.3398L74.6971 40.0076H86.636ZM65.6686 36.0037C62.3731 36.0037 59.7016 33.3205 59.7016 30.0026C59.7016 26.6897 62.3731 24.0041 65.6686 24.0041C68.9641 24.0041 71.638 26.6897 71.638 30.0026C71.638 33.3205 68.9641 36.0037 65.6686 36.0037Z" fill="#666666"/>
<path d="M114.663 7.00635C113.761 7.00635 112.908 7.20679 112.148 7.56577L102.646 12.0172C102.176 9.17373 99.7187 7.00635 96.7547 7.00635C95.8577 7.00635 95.0022 7.20679 94.2319 7.56577L82.6318 12.9995H90.7877V40.0078H102.727V16.0042C102.727 14.348 104.06 12.9998 105.713 12.9998C107.355 12.9998 108.698 14.348 108.698 16.0042V40.0078H120.632V12.9995C120.632 9.68733 117.959 7.00635 114.663 7.00635Z" fill="#666666"/>
<path d="M189.533 7.00635C188.629 7.00635 187.771 7.20679 186.998 7.56577L177.507 12.0172C177.039 9.17373 174.582 7.00635 171.618 7.00635C170.721 7.00635 169.865 7.20679 169.092 7.56577L157.497 12.9995H165.651V40.0078H177.587V16.0042C177.587 14.348 178.923 12.9998 180.575 12.9998C182.223 12.9998 183.556 14.348 183.556 16.0042V40.0078H195.5V12.9995C195.5 9.68733 192.824 7.00635 189.533 7.00635Z" fill="#666666"/>
<path d="M159.428 24.0038C159.428 33.3915 151.859 41 142.524 41C133.181 41 125.607 33.3915 125.607 24.0038C125.607 14.6185 133.181 7.00635 142.524 7.00635C151.859 7.00635 159.428 14.6188 159.428 24.0038ZM143.223 12.1649C142.692 10.1649 140.647 8.97769 138.658 9.51531C136.671 10.0507 135.484 12.1078 136.018 14.1076L141.817 35.8419C142.353 37.8439 144.393 39.0299 146.382 38.5006C148.371 37.9591 149.553 35.9032 149.02 33.9036L143.223 12.1649Z" fill="#666666"/>
</g>
<defs>
<clipPath id="clip0_146_58">
<rect width="195" height="41" fill="white" transform="translate(0.5)"/>
</clipPath>
</defs>
</svg>
