<svg width="234" height="53" viewBox="0 0 234 53" fill="none" xmlns="http://www.w3.org/2000/svg">
<g clip-path="url(#clip0_146_68)">
<path d="M208.188 39.7395C201.019 39.7395 195.199 33.9489 195.199 26.8163C195.199 19.6799 201.019 13.8969 208.188 13.8969C215.361 13.8969 221.17 19.6799 221.17 26.8163C221.17 33.9489 215.361 39.7395 208.188 39.7395ZM208.091 0.935303C193.777 0.935303 182.175 12.482 182.175 26.7202C182.175 40.9545 193.777 52.4973 208.091 52.4973C222.399 52.4973 234 40.9545 234 26.7202C234 12.482 222.399 0.935303 208.091 0.935303Z" fill="#666666"/>
<path d="M208.091 16.5835C202.464 16.5835 197.899 21.1168 197.899 26.719C197.899 32.3136 202.464 36.8546 208.091 36.8546C213.718 36.8546 218.278 32.3136 218.278 26.719C218.278 21.1168 213.718 16.5835 208.091 16.5835Z" fill="#666666"/>
<path d="M155.225 33.7131H169.807C166.553 43.0412 157.683 41.4878 157.683 41.4878C150.518 41.357 147.156 35.528 147.156 35.528C141.162 25.1579 147.156 17.5216 147.156 17.5216C149.888 12.7268 157.05 12.2078 157.05 12.2078C165.772 12.2078 168.767 18.6867 168.767 18.6867H182.305C178.916 8.38193 169.177 0.934082 157.683 0.934082C143.376 0.934082 131.778 12.4807 131.778 26.7189C131.778 40.9533 143.376 52.5 157.683 52.5C172.002 52.5 183.6 40.9533 183.6 26.7189C183.6 25.7538 183.542 24.8041 183.438 23.8698H155.225V33.7131Z" fill="#666666"/>
<path d="M100.072 36.2705C105.68 36.2705 110.213 31.7487 110.213 26.1734C110.213 20.5942 105.68 16.0724 100.072 16.0724C94.4686 16.0724 89.9237 20.5942 89.9237 26.1734C89.9237 31.7487 94.4686 36.2705 100.072 36.2705ZM87.1605 26.1734C87.1605 19.0716 92.9459 13.3271 100.072 13.3271C107.203 13.3271 112.988 19.0716 112.988 26.1734C112.988 33.2636 107.203 39.0158 100.072 39.0158C92.9459 39.0158 87.1605 33.2636 87.1605 26.1734ZM69.1858 26.1734C70.778 25.9657 73.4408 24.1547 74.3799 22.9897C74.0514 24.4316 74.0282 28.5957 74.4109 30.03C73.3403 28.392 70.8051 26.3733 69.1858 26.1734ZM59.9028 12.5735C61.9317 12.5735 63.5279 14.5652 63.5279 16.8376C63.5279 19.1023 61.9317 21.1017 59.9028 21.1017H52.927V12.5735H59.9028ZM59.8757 31.518C61.9085 31.518 63.5047 33.5097 63.5047 35.786C63.5047 38.0546 61.9085 40.0463 59.8757 40.0463H52.9038V31.518H59.8757ZM100.065 52.0544C114.275 52.0505 125.838 40.3001 125.834 26.1657C125.834 11.7237 114.275 0.507699 100.065 0.500017C85.8658 0.484638 78.6156 10.8778 76.8263 15.0766C76.8417 8.78223 70.6041 1.34592 63.3037 1.33439H39.7909V51.7967L61.7114 51.8044C70.5539 51.8044 76.8417 44.1874 76.8495 37.6547C78.8745 41.765 85.8658 52.0621 100.065 52.0544ZM36.9194 51.816H23.1379V32.237H14.1911V51.816H0.0463538L0 1.34205H14.1912V20.1212H23.1379V1.34205H36.9194L36.9194 51.816Z" fill="#666666"/>
</g>
<defs>
<clipPath id="clip0_146_68">
<rect width="234" height="52" fill="white" transform="translate(0 0.5)"/>
</clipPath>
</defs>
</svg>
