<svg width="228" height="57" viewBox="0 0 228 57" fill="none" xmlns="http://www.w3.org/2000/svg">
<g clip-path="url(#clip0_146_90)">
<path d="M23.5723 18.6121C23.5723 18.446 23.5723 18.2797 23.4061 18.2797C23.2399 18.2797 23.2399 18.2797 23.0738 18.2797L21.412 18.7783C21.2457 18.7783 21.2457 18.9445 21.2457 19.1107C21.2457 19.2769 21.412 19.2769 21.412 19.2769H23.0738C23.2399 19.2769 23.2399 19.2769 23.2399 19.2769V19.1107V18.6121H23.5723ZM43.6801 34.8978C44.1787 34.3993 44.3449 34.0669 44.3449 33.4022C43.6802 33.7346 43.0155 33.9008 42.0183 34.2332C41.5198 34.3993 41.1874 34.2332 40.5228 34.3993C39.858 34.5654 39.3595 34.8978 38.6947 34.8978C38.3623 34.8978 38.03 34.5654 38.03 34.2332C38.1962 33.4022 39.1932 32.9037 40.0241 32.0728C40.6889 31.408 41.0213 30.7434 41.1874 30.0786C41.1874 30.0786 40.5228 29.9125 39.858 29.9125C40.855 29.2477 40.855 28.2507 41.0213 27.5859C41.0213 27.2535 41.1874 27.0874 41.1874 27.0874C41.1874 27.0874 40.5228 26.9212 40.0241 27.0874C40.5228 26.2564 40.3565 25.5917 40.5228 25.2594C40.5228 24.927 40.6889 24.7609 40.6889 24.4285C40.3565 24.4285 40.3565 24.4285 39.858 24.4285C39.5256 24.4285 38.6947 24.4285 37.8638 24.927C37.8638 24.927 37.8638 24.5946 37.8638 24.2622C37.8638 24.2622 36.5344 24.2622 35.3712 25.0932C35.3712 25.0932 35.2049 24.7609 35.3712 24.4285C35.3712 24.4285 33.377 24.2622 32.0475 26.5888C30.2195 26.755 29.7209 27.0874 29.0563 27.9183C27.5606 29.4138 26.5636 34.2332 24.0708 34.2332C23.4061 34.2332 22.9075 33.5684 22.9075 32.9037C22.9075 32.0728 24.237 29.9125 24.7355 29.4138C26.8958 26.755 29.2224 23.2652 29.2224 20.4401C29.2224 18.2797 27.5606 16.2855 25.4003 16.2855C24.9017 16.2855 24.0708 16.4518 24.0708 17.1166C24.0708 17.7812 24.4032 17.7812 24.7355 17.7812C25.0679 17.7812 25.2341 17.7812 25.7326 17.6151C25.8988 17.6151 26.3973 17.6151 26.3973 17.9475C26.3973 18.2797 25.8988 18.2797 25.7326 18.446C25.4003 18.446 25.0679 18.446 24.7355 18.446C24.4032 18.446 24.237 18.6121 24.237 18.9445C24.237 19.443 24.9017 19.6092 25.4003 19.6092C26.3973 19.6092 27.3945 19.9416 27.2282 21.4372C27.0621 22.9328 26.2312 24.5946 25.4003 25.9241C23.2399 29.4138 19.0854 31.5743 19.0854 35.3963C19.0854 36.5596 19.5839 37.8891 20.4148 38.5538H40.5228C41.0213 38.2215 41.1874 38.0553 41.5198 37.5568C42.0183 37.0582 42.0183 36.5596 42.5169 36.0611C43.0154 35.5626 43.3478 35.3963 43.6801 34.8978ZM48.3332 28.4168C48.3332 37.8891 40.6889 45.6996 31.0504 45.6996C21.5781 45.6996 13.7676 37.8891 13.7676 28.4168C13.7676 18.9445 21.5781 11.3002 31.0504 11.3002C40.5228 11.3002 48.3332 18.9445 48.3332 28.4168ZM51.3245 28.4168C51.3245 17.1166 42.1846 8.14274 31.0504 8.14274C19.7501 8.14274 10.7764 17.2827 10.7764 28.4168C10.7764 39.7171 19.9163 48.6909 31.0504 48.6909C42.3507 48.857 51.3245 39.7171 51.3245 28.4168ZM78.9105 22.1019L80.4061 19.443C77.7472 17.2827 75.2545 16.4518 72.0971 16.4518C66.1146 16.4518 61.2953 21.1049 61.96 25.5917C62.2924 29.5801 65.9483 32.239 69.9367 34.3993C71.0999 34.8978 71.5986 36.3935 70.9338 37.3905C70.4353 38.0553 69.6044 38.3877 68.9396 38.3877C67.7764 38.3877 65.4498 37.0582 64.4528 35.3963L62.6248 37.8891C63.788 39.2185 66.6131 41.8775 71.0999 42.2097C75.9192 42.5421 81.7355 39.3847 81.7355 33.5684C81.5694 31.2419 80.7384 28.9153 78.7442 27.4197C77.4148 26.4226 73.5927 24.2622 72.5956 23.4313C71.4323 22.4343 71.7647 21.4372 72.0971 20.9386C72.928 19.9416 73.4265 19.9416 74.4236 19.9416C75.4207 19.9416 77.4148 20.6063 78.9105 22.1019ZM98.1874 22.4343H105.333L103.671 17.4488H82.2341L81.0708 22.4343H87.3857L89.0475 41.8775H96.5256L98.1874 22.4343ZM116.634 33.9008H107.826L111.814 23.0991L116.634 33.9008ZM120.123 41.7112H127.601L120.955 17.2827H108.823L99.8492 41.7112H105.001L106.164 38.3877H118.628L120.123 41.7112ZM145.549 24.2622C145.549 26.2564 143.887 27.752 142.059 27.752H140.065L140.73 20.6063H142.225C144.053 20.6063 145.549 22.2681 145.549 24.2622ZM139.733 31.2419H140.896C142.89 31.2419 144.884 32.9037 144.884 34.8978C144.884 36.892 143.223 38.5538 141.394 38.5538H139.234L139.733 31.2419ZM154.855 22.7667C154.689 18.6121 151.199 17.2827 147.709 17.2827H129.43L131.59 41.7112H147.044C150.7 41.7112 154.357 38.72 154.357 35.5626C154.357 32.2389 151.864 30.0786 148.374 29.0816C151.199 28.7492 154.855 26.0903 154.855 22.7667ZM167.318 41.7112L169.48 17.2827H157.681L159.841 41.7112H167.318ZM183.272 36.7259L184.934 17.2827H173.135L175.295 41.7112H188.756L189.089 36.7259H183.272ZM207.202 26.2564L201.385 36.2274C200.555 37.7229 198.56 38.0553 197.231 37.2244C195.735 36.3935 195.236 34.3993 196.234 32.7375L201.884 22.9328C202.715 21.4372 204.543 20.9386 206.039 21.7695C207.534 22.7667 208.033 24.7609 207.202 26.2564ZM214.016 29.5801C214.016 22.6004 208.365 16.9503 201.552 16.9503C194.573 16.9503 189.089 22.6004 189.089 29.5801C189.089 36.5596 194.739 42.2097 201.552 42.2097C208.365 42.2097 214.016 36.5596 214.016 29.5801ZM217.339 12.962H216.342V11.134H217.339C218.003 11.134 218.668 11.3002 218.668 11.9649C218.668 12.7958 218.003 12.962 217.339 12.962ZM219.832 16.4518L218.169 13.7929C219.167 13.6267 219.832 13.1282 219.832 12.1311C219.832 10.8016 219.001 10.3031 217.506 10.3031H215.178V16.4518H216.342V13.7929H217.007L218.668 16.4518H219.832ZM221.493 13.4605C221.493 16.1194 219.666 17.9475 217.339 17.9475C215.013 17.9475 213.184 16.1194 213.184 13.4605C213.184 10.9678 215.013 8.97365 217.339 8.97365C219.666 8.97365 221.493 10.8016 221.493 13.4605ZM222.823 13.4605C222.823 10.4693 220.331 7.97656 217.339 7.97656C214.348 7.97656 211.856 10.4693 211.856 13.4605C211.856 16.4518 214.348 18.9445 217.339 18.9445C220.331 18.9445 222.823 16.4518 222.823 13.4605Z" fill="#666666"/>
</g>
<defs>
<clipPath id="clip0_146_90">
<rect width="228" height="57" fill="white"/>
</clipPath>
</defs>
</svg>
