<svg width="182" height="41" viewBox="0 0 182 41" fill="none" xmlns="http://www.w3.org/2000/svg">
<g clip-path="url(#clip0_88_143)">
<path d="M161.924 30.9389C156.348 30.9389 151.821 26.3732 151.821 20.7494C151.821 15.1227 156.348 10.563 161.924 10.563C167.503 10.563 172.021 15.1227 172.021 20.7494C172.021 26.3732 167.503 30.9389 161.924 30.9389ZM161.849 0.343262C150.715 0.343262 141.691 9.44736 141.691 20.6736C141.691 31.8969 150.715 40.998 161.849 40.998C172.977 40.998 182 31.8969 182 20.6736C182 9.44736 172.977 0.343262 161.849 0.343262Z" fill="white"/>
<path d="M161.848 12.6812C157.472 12.6812 153.922 16.2555 153.922 20.6726C153.922 25.0837 157.472 28.6641 161.848 28.6641C166.225 28.6641 169.772 25.0837 169.772 20.6726C169.772 16.2555 166.225 12.6812 161.848 12.6812Z" fill="white"/>
<path d="M120.731 26.1873H132.072C129.541 33.5421 122.643 32.3173 122.643 32.3173C117.07 32.2142 114.455 27.6182 114.455 27.6182C109.792 19.4418 114.455 13.4209 114.455 13.4209C116.58 9.64041 122.15 9.23115 122.15 9.23115C128.934 9.23115 131.263 14.3395 131.263 14.3395H141.793C139.157 6.21462 131.582 0.342285 122.643 0.342285C111.515 0.342285 102.494 9.44639 102.494 20.6727C102.494 31.8959 111.515 41 122.643 41C133.779 41 142.8 31.8959 142.8 20.6727C142.8 19.9117 142.755 19.1629 142.674 18.4262H120.731V26.1873Z" fill="white"/>
<path d="M77.8341 28.2036C82.1956 28.2036 85.7215 24.6384 85.7215 20.2425C85.7215 15.8435 82.1956 12.2783 77.8341 12.2783C73.4756 12.2783 69.9407 15.8435 69.9407 20.2425C69.9407 24.6384 73.4756 28.2036 77.8341 28.2036ZM67.7915 20.2425C67.7915 14.643 72.2913 10.1137 77.8341 10.1137C83.3799 10.1137 87.8797 14.643 87.8797 20.2425C87.8797 25.8329 83.3799 30.3682 77.8341 30.3682C72.2913 30.3682 67.7915 25.8329 67.7915 20.2425ZM53.8112 20.2425C55.0496 20.0788 57.1206 18.6508 57.8511 17.7322C57.5956 18.8691 57.5775 22.1524 57.8751 23.2832C57.0425 21.9917 55.0706 20.4001 53.8112 20.2425ZM46.591 9.51946C48.1691 9.51946 49.4106 11.0899 49.4106 12.8816C49.4106 14.6672 48.1691 16.2437 46.591 16.2437H41.1654V9.51946H46.591ZM46.57 24.4565C48.1511 24.4565 49.3925 26.0269 49.3925 27.8216C49.3925 29.6103 48.1511 31.1807 46.57 31.1807H41.1474V24.4565H46.57ZM77.8281 40.6486C88.8807 40.6456 97.8743 31.3808 97.8713 20.2364C97.8713 8.84945 88.8807 0.00607037 77.8281 1.34426e-05C66.7845 -0.0121123 61.1455 8.18248 59.7538 11.4931C59.7658 6.53022 54.9143 0.666973 49.2362 0.657882H30.9485V40.4455L47.9978 40.4516C54.8752 40.4516 59.7658 34.4458 59.7718 29.295C61.3469 32.5359 66.7845 40.6547 77.8281 40.6486ZM28.7151 40.4607H17.9962V25.0234H11.0376V40.4607H0.036053L0 0.663927H11.0376V15.4706H17.9962V0.663927H28.7151L28.7151 40.4607Z" fill="white"/>
</g>
<defs>
<clipPath id="clip0_88_143">
<rect width="182" height="41" fill="white"/>
</clipPath>
</defs>
</svg>
