<svg width="30" height="41" viewBox="0 0 30 41" fill="none" xmlns="http://www.w3.org/2000/svg">
<path d="M17.5 0.976074H26.25C28.2812 0.976074 30 2.69482 30 4.72607V20.9761H0V4.72607C0 2.69482 1.64062 0.976074 3.75 0.976074H5L7.5 5.97607L10 0.976074H12.5L15 5.97607L17.5 0.976074ZM30 23.4761V25.9761C30 28.7886 27.7344 30.9761 25 30.9761H20V35.9761C20 38.7886 17.7344 40.9761 15 40.9761C12.1875 40.9761 10 38.7886 10 35.9761V30.9761H5C2.1875 30.9761 0 28.7886 0 25.9761V23.4761H30ZM15 37.2261C15.625 37.2261 16.25 36.6792 16.25 35.9761C16.25 35.3511 15.625 34.7261 15 34.7261C14.2969 34.7261 13.75 35.3511 13.75 35.9761C13.75 36.6792 14.2969 37.2261 15 37.2261Z" fill="white"/>
</svg>
