<svg width="45" height="41" viewBox="0 0 45 41" fill="none" xmlns="http://www.w3.org/2000/svg">
<path d="M41.25 0.976074C43.2812 0.976074 45 2.69482 45 4.72607V29.7261C45 31.8354 43.2812 33.4761 41.25 33.4761H26.25L27.5 37.2261H33.125C34.1406 37.2261 35 38.0854 35 39.1011C35 40.1948 34.1406 40.9761 33.125 40.9761H11.875C10.7812 40.9761 10 40.1948 10 39.1011C10 38.0854 10.7812 37.2261 11.875 37.2261H17.5L18.75 33.4761H3.75C1.64062 33.4761 0 31.8354 0 29.7261V4.72607C0 2.69482 1.64062 0.976074 3.75 0.976074H41.25ZM40 23.4761V5.97607H5V23.4761H40Z" fill="white"/>
</svg>
