<svg width="35" height="36" viewBox="0 0 35 36" fill="none" xmlns="http://www.w3.org/2000/svg">
<path d="M32.5 7.97592C33.8281 7.97592 35 9.1478 35 10.6322C35 11.9603 33.8281 13.054 32.5 13.054H27.1094L25.3906 23.054H30C31.3281 23.054 32.5 24.2259 32.5 25.554C32.5 26.8822 31.3281 27.9759 30 27.9759H24.6094L23.6719 33.4447C23.4375 34.6165 22.4219 35.4759 21.25 35.4759C21.0938 35.4759 20.9375 35.4759 20.7812 35.4759C19.4531 35.2415 18.5156 33.9915 18.75 32.5853L19.5312 27.9759H12.1094L11.1719 33.4447C10.9375 34.6165 9.92188 35.4759 8.75 35.4759C8.59375 35.4759 8.4375 35.4759 8.28125 35.3197C6.95312 35.0853 6.01562 33.8353 6.25 32.429L7.03125 27.8978H2.5C1.09375 27.8978 0 26.804 0 25.4759C0 24.0697 1.09375 22.9759 2.5 22.9759H7.8125L9.53125 12.9759H5C3.59375 12.9759 2.5 11.8822 2.5 10.4759C2.5 9.06967 3.59375 7.97592 5 7.97592H10.3125L11.25 2.50717C11.4844 1.17905 12.7344 0.241546 14.1406 0.475921C15.4688 0.710296 16.4062 1.9603 16.1719 3.36655L15.3906 7.97592H22.8125L23.75 2.50717C23.9844 1.17905 25.2344 0.241546 26.6406 0.475921C27.9688 0.710296 28.9062 1.9603 28.6719 3.36655L27.8906 7.97592H32.5ZM20.3125 22.9759L22.0312 12.9759H14.6094L12.8906 22.9759H20.3125Z" fill="white"/>
</svg>
