<svg width="40" height="32" viewBox="0 0 40 32" fill="none" xmlns="http://www.w3.org/2000/svg">
<path d="M22 27V24H32V29C32 30.6875 30.625 32 29 32H3C1.3125 32 0 30.6875 0 29V11C0 9.375 1.3125 8 3 8H10V27C10 27.5625 10.4375 28 11 28H21C21.5 28 22 27.5625 22 27ZM6.5 27.4375V25.5625C6.5 25.3125 6.1875 25 5.9375 25H4.0625C3.75 25 3.5 25.3125 3.5 25.5625V27.4375C3.5 27.75 3.75 28 4.0625 28H5.9375C6.1875 28 6.5 27.75 6.5 27.4375ZM6.5 20.9375V19.0625C6.5 18.8125 6.1875 18.5 5.9375 18.5H4.0625C3.75 18.5 3.5 18.8125 3.5 19.0625V20.9375C3.5 21.25 3.75 21.5 4.0625 21.5H5.9375C6.1875 21.5 6.5 21.25 6.5 20.9375ZM6.5 14.4375V12.5625C6.5 12.3125 6.1875 12 5.9375 12H4.0625C3.75 12 3.5 12.25 3.5 12.5625V14.4375C3.5 14.75 3.75 15 4.0625 15H5.9375C6.1875 15 6.5 14.75 6.5 14.4375ZM25.5 25.5625V27.4375C25.5 27.75 25.75 28 26.0625 28H27.9375C28.1875 28 28.5 27.75 28.5 27.4375V25.5625C28.5 25.3125 28.1875 25 27.9375 25H26.0625C25.75 25 25.5 25.3125 25.5 25.5625ZM36.9375 0C38.625 0 40 1.375 39.9375 3V19C39.9375 20.6875 38.5625 22 36.9375 22H14.9375C13.25 22 11.9375 20.6875 11.9375 19V3C11.9375 1.375 13.3125 0 14.9375 0H36.9375ZM18.9375 4C17.875 4 16.9375 4.9375 16.9375 6C16.9375 7.125 17.875 8 18.9375 8C20 8 20.9375 7.125 20.9375 6C20.9375 4.9375 20 4 18.9375 4ZM35.875 17.5C36 17.1875 36 16.75 35.8125 16.5L29.125 6.5C28.9375 6.1875 28.625 6 28.3125 6C27.9375 6 27.625 6.1875 27.4375 6.5L23.5 12.375L22.125 10.4375C21.9375 10.1875 21.625 10 21.3125 10C21 10 20.75 10.1875 20.5625 10.4375L16.1875 16.4375C15.9375 16.75 15.9375 17.125 16.0625 17.5C16.25 17.8125 16.5625 18 16.9375 18H35C35.3125 18 35.6875 17.8125 35.875 17.5Z" fill="#666666"/>
</svg>
