<svg width="32" height="32" viewBox="0 0 32 32" fill="none" xmlns="http://www.w3.org/2000/svg">
<path d="M23.0002 1.1875C24.3752 -0.1875 26.5627 -0.1875 27.9377 1.1875L30.8127 4.0625C32.1877 5.4375 32.1877 7.625 30.8127 9L27.3127 12.5L19.5002 4.6875L23.0002 1.1875ZM26.0627 14L23.1877 23.625C22.8127 24.875 21.8752 25.8125 20.6252 26.25L4.12525 31.8125C3.37525 32 2.62525 31.875 2.06275 31.3125L11.6877 21.75C12.0627 21.9375 12.5002 22 12.9377 22C14.6252 22 15.9377 20.6875 15.9377 19C15.9377 17.375 14.6252 16 12.9377 16C11.3127 16 9.93775 17.375 9.93775 19C9.93775 19.5 10.0627 19.9375 10.2502 20.3125L0.687749 29.9375C0.125249 29.375 -0.0622513 28.625 0.187749 27.875L5.75025 11.375C6.12525 10.125 7.12525 9.1875 8.37525 8.8125L17.9377 5.9375L26.0627 14Z" fill="#666666"/>
</svg>
