<svg width="40" height="36" viewBox="0 0 40 36" fill="none" xmlns="http://www.w3.org/2000/svg">
<path d="M10 32.9761C10 34.3823 8.82812 35.4761 7.5 35.3198H2.5C1.09375 35.3198 0 34.2261 0 32.8979V15.4761C0 14.1479 1.09375 12.9761 2.5 12.9761H7.5C8.82812 12.9761 10 14.0698 10 15.4761V32.9761ZM40 15.5542C40 17.5073 38.4375 19.1479 36.4844 19.2261C37.1094 19.9292 37.5 20.7886 37.5 21.8042C37.5 23.6011 36.1719 25.0854 34.375 25.4761C34.7656 26.0229 35 26.6479 35 27.3511C35 29.0698 33.9062 30.4761 32.3438 30.9448C32.4219 31.1792 32.5 31.4917 32.5 31.8042C32.5 33.8354 30.7812 35.4761 28.75 35.4761H24.1406C21.4062 35.4761 18.8281 34.6167 16.6406 32.9761L13.9844 31.0229C13.0469 30.3198 12.5 29.2261 12.5 27.9761V15.4761C12.5 15.5542 12.5 15.4761 12.5 15.4761C12.5 14.3823 12.9688 13.3667 13.9062 12.5854L15.1562 11.5698C21.5625 6.4917 18.6719 0.476074 23.5938 0.476074C26.0156 0.476074 27.5 2.4292 27.5 4.3042C27.5 5.47607 26.5625 8.83545 24.7656 11.8042H36.25C38.2812 11.8042 40 13.4448 40 15.5542Z" fill="white"/>
</svg>
